<?xml version="1.0" encoding="UTF-8"?>
<svg id="Layer_2" data-name="Layer 2" xmlns="http://www.w3.org/2000/svg" viewBox="0 0 1180.99 234.08">
  <defs>
    <style>
      .cls-1 {
        fill: #343538;
        stroke-width: 0px;
      }
    </style>
  </defs>
  <g id="Layer_2-2" data-name="Layer 2">
    <path class="cls-1" d="M1180.99,234.08c-.52-.62-.98-1.33-1.59-1.85-13.65-11.72-27.23-23.53-41-35.11-25.11-21.12-49.89-42.62-77.45-60.66-61.8-40.44-128.87-55.52-201.98-43.62-31.96,5.2-63.13,13.37-94.04,22.73-49.35,14.94-98.45,30.74-148.02,44.9-61.45,17.55-124.21,28.65-187.99,33.35-41.92,3.09-83.87,3.55-125.84.43-39.13-2.91-77.7-8.92-115.35-20.2-45.5-13.63-87.53-33.86-122.95-66.15C34.08,79.91,11.76,46.57,1.47,5.85c-.47-1.84-.92-3.67-1.47-5.85v234.08h1180.99Z"/>
  </g>
</svg>