<?xml version="1.0" encoding="UTF-8"?>
<svg id="Layer_2" data-name="Layer 2" xmlns="http://www.w3.org/2000/svg" viewBox="0 0 1182.44 261.36">
  <defs>
    <style>
      .cls-1 {
        fill: #936844;
        stroke-width: 0px;
      }
    </style>
  </defs>
  <g id="Layer_2-2" data-name="Layer 2">
    <path class="cls-1" d="M1179.53,256.48c-12.36-17.75-23.68-36.33-37.23-53.12-56.42-69.94-129.68-106.06-219.87-106.85-37.7-.33-74.82,4.71-111.09,14.64-35.93,9.84-71.38,21.37-107.21,31.58-96.91,27.63-195.09,48.48-296.05,54.03-57.45,3.16-114.59.98-171.08-10.66-47.99-9.89-93.51-26.31-134.51-53.74C59.98,103.92,26.81,67.43,6.93,19.77,4.26,13.38,2.34,6.67.04,0c-.01.02-.02.03-.04.05v261.3h1177.94c1.34,0,2.67.04,4-.04.18-.02.33-.63.5-.96-.97-1.29-1.99-2.55-2.91-3.87Z"/>
  </g>
</svg>