<?xml version="1.0" encoding="UTF-8"?>
<svg id="Layer_2" data-name="Layer 2" xmlns="http://www.w3.org/2000/svg" viewBox="0 1 1934 326">
  <defs>
    <style>
      .cls-1 {
        stroke-width: 0px;
      }
    </style>
  </defs>
  <g id="Layer_1-2" data-name="Layer 1">
    <path class="cls-1" fill="#936844" d="m0,0c1.73.92,3.55,1.71,5.19,2.77,71.5,46.05,145.53,87.35,224.36,119.67,57.46,23.56,116.46,41.89,178.01,51.14,67.35,10.12,134.18,9.2,199.69-11.66,52.24-16.63,98.05-43.71,134.59-85.25,3.39-3.86,6.48-7.98,9.75-12.03,2.3,6.67,4.22,13.38,6.89,19.77,19.88,47.66,53.05,84.15,95.56,112.59,41,27.43,86.52,43.85,134.51,53.74,56.49,11.64,113.63,13.82,171.08,10.66,100.96-5.55,199.14-26.4,296.05-54.03,35.83-10.21,71.28-21.74,107.21-31.58,36.27-9.93,73.39-14.97,111.09-14.64,90.19.79,163.45,36.91,219.87,106.85,13.55,16.79,24.87,35.37,37.23,53.12.92,1.32,1.94,2.58,2.91,3.87-.17.33-.32.94-.5.96-1.33.08-2.66.04-4,.04H0c0-108.66,0-217.32,0-325.98Z"/>
  </g>
</svg>