<?xml version="1.0" encoding="UTF-8"?>
<svg id="Layer_2" data-name="Layer 2" xmlns="http://www.w3.org/2000/svg" viewBox="0 0 1933 304">
  <defs>
    <style>
      .cls-1 {
        stroke-width: 0px;
      }
    </style>
  </defs>
  <g id="Layer_1-2" data-name="Layer 1">
    <path class="cls-1" fill="#343538" d="m0,0c53.23,34.88,107.88,67.32,165.09,95.31,60.54,29.62,122.93,54.28,188.59,70.14,50.77,12.26,102.18,18.87,154.47,16.45,71.8-3.32,138.35-22.67,196.75-66.01,17.59-13.05,33.52-27.88,47.1-45.97.55,2.18,1,4.01,1.47,5.85,10.29,40.72,32.61,74.06,63.31,102.05,35.42,32.29,77.45,52.52,122.95,66.15,37.65,11.28,76.22,17.29,115.35,20.2,41.97,3.12,83.92,2.66,125.84-.43,63.78-4.7,126.54-15.8,187.99-33.35,49.57-14.16,98.67-29.96,148.02-44.9,30.91-9.36,62.08-17.53,94.04-22.73,73.11-11.9,140.18,3.18,201.98,43.62,27.56,18.04,52.34,39.54,77.45,60.66,13.77,11.58,27.35,23.39,41,35.11.61.52,1.07,1.23,1.59,1.85H0c0-101.33,0-202.66,0-303.99Z"/>
  </g>
</svg>