<?xml version="1.0" encoding="UTF-8"?>
<svg id="Layer_2" data-name="Layer 2" xmlns="http://www.w3.org/2000/svg" viewBox="0 0 350.44 342.07">
  <defs>
    <style>
      .cls-links {
        stroke-width: 0px;
      }
    </style>
    <linearGradient id="g-fill" x1="0%" y1="0%" x2="0%" y2="100%">
        <stop offset="0%" stop-color="#936844" />
        <stop offset="100%" stop-color="#c7a17c" />
    </linearGradient>
    <filter id="dropshadow" x="-40%" y="-40%" width="180%" height="180%">
    <feOffset result="offOut" in="SourceGraphic" dx="10" dy="10" />
    <feColorMatrix result="matrixOut" in="offOut" type="matrix"
        values="0 0 0 0 0  0 0 0 0 0  0 0 0 0 0  0 0 0 0.4 0" />
    <feGaussianBlur result="blurOut" in="matrixOut" stdDeviation="10" />
    <feBlend in="SourceGraphic" in2="blurOut" mode="normal" />
    </filter>
  </defs>
  <g id="Layer_1-2" data-name="Layer 1">
    <path fill="url(#g-fill)" filter="url(#dropshadow)" class="cls-links" d="M350.44,186.75c-.91,6.63-1.59,13.31-2.78,19.89-7.86,43.6-29.97,78.7-64.07,106.51-15.43,12.58-32.92,21.52-51.67,28.05-7.8,2.72-13.1-1.04-13.16-9.4-.1-14.48-.06-28.97-.02-43.45.03-12.99-1.22-25.56-11.55-35.5,7.09-1.32,13.83-2.21,20.38-3.85,18-4.49,34.11-12.37,45.09-28.06,8.22-11.74,11.85-25.26,13.42-39.34,1.1-9.87,1.39-19.76-.49-29.62-2.18-11.45-7.04-21.6-14.67-30.38-1.52-1.75-1.83-3.2-1.05-5.44,4.93-14.29,2.94-28.28-2.31-42.03-.32-.84-1.81-1.61-2.84-1.74-5.95-.74-11.63.78-16.88,3.27-8.82,4.19-17.37,8.95-26.13,13.28-1.66.82-3.93,1.43-5.63,1.01-27.29-6.88-54.53-6.87-81.81.03-1.61.41-3.89-.03-5.31-.93-11.31-7.22-23.22-13.03-36.29-16.25-8.1-2-9.68-.89-11.99,7.09-3.64,12.57-4.18,25.08.16,37.62.31.9-.08,2.46-.73,3.21-14.6,16.72-18.1,36.39-16.01,57.79,1.22,12.5,4.11,24.44,9.68,35.68,7.62,15.38,20.46,24.97,36.1,30.63,8.91,3.22,18.44,4.72,27.7,6.94,1.65.4,3.37.52,5.39.82-1.74,2.33-3.77,4.28-4.85,6.66-2.08,4.62-3.6,9.49-5.41,14.24-.42,1.09-.87,2.7-1.7,3.01-12.27,4.61-24.61,7.02-36.71-.45-5.24-3.23-9.15-7.84-12.24-13.13-5.08-8.71-12.18-15.09-21.87-18.03-3.25-.98-6.95-1.08-10.36-.75-3.61.34-4.13,1.89-2,4.74,1.34,1.8,2.89,3.69,4.79,4.78,9.2,5.28,14.39,13.73,18.59,22.97,2.5,5.49,4.67,11.08,9.31,15.33,7.3,6.69,16.19,9.23,25.67,9.7,8.26.4,16.57-.08,25.35-.17.02.22.17,1.29.19,2.36.11,9.12.23,18.25.28,27.37.05,8.97-5.46,12.72-14.01,9.77-33.5-11.56-60.84-31.55-82.29-59.72-18.46-24.25-30.19-51.35-34.05-81.59-6.17-48.33,4.84-92.43,34.61-131.2C61.96,34.99,95.62,12.85,137.01,4.32c62.01-12.79,116.62,2.82,162.15,47.05,25.49,24.75,41.31,55.26,48.16,90.23,1.18,6.02,1.62,12.18,2.44,18.27.13.99.45,1.96.68,2.94v23.95Z"/>
  </g>
</svg>