<?xml version="1.0" encoding="UTF-8"?>
<svg id="Layer_2" data-name="Layer 2" xmlns="http://www.w3.org/2000/svg" viewBox="0 0 483.4 535.69">
  <defs>
    <style>
      .cls-1 {
        stroke-width: 0px;
      }
    </style>
    <linearGradient id="g-fill" x1="0%" y1="0%" x2="0%" y2="100%">
        <stop offset="0%" stop-color="#936844" />
        <stop offset="100%" stop-color="#c7a17c" />
    </linearGradient>
    <filter id="dropshadow" x="-40%" y="-40%" width="180%" height="180%">
      <feOffset result="offOut" in="SourceGraphic" dx="10" dy="10" />
      <feColorMatrix result="matrixOut" in="offOut" type="matrix"
        values="0 0 0 0 0  0 0 0 0 0  0 0 0 0 0  0 0 0 0.7 0" />
      <feGaussianBlur result="blurOut" in="matrixOut" stdDeviation="10" />
      <feBlend in="SourceGraphic" in2="blurOut" mode="normal" />
    </filter>
  </defs>
  <g id="Layer_1-2" data-name="Layer 1">
    <path class="cls-1" fill="#936844" filter="url(#dropshadow)" d="M229.15,30.84c-.59.76-1.27,1.48-1.77,2.3-1.89,3.14-2.05,6.67-.06,8.84,2.25,2.46,5.17,3.61,8.56,2.97,4.69-.89,8.16-5.09,8.67-10.32.6-6.07-1.82-11.02-5.64-15.45-6.17-7.14-14.07-10.72-23.36-11.97-8.19-1.1-15.88.17-23.16,3.8-11.76,5.86-17.57,15.8-18.66,28.63-.6,7.02-.06,13.99,3.02,20.48.82,1.73,1.98,3.56,3.49,4.67,17.91,13.17,29.83,30.51,36.38,51.66.34,1.11.69,2.22,1.07,3.31.1.3.32.55.72,1.23,2.38,0,5.01-.02,7.65,0,27.97.19,54.58,6.37,79.9,18.2,5.41,2.53,10.69,5.36,16.16,7.75,8.49,3.7,17.47,5.33,26.69,4.88,3.91-.19,7.89-1.1,11.63-2.33,4.39-1.45,5.59-3.91,5.37-8.76,6.07,3.79,7.16,6.27,6.09,13.83,4.86-2.82,6.87-6.84,5.6-11.22-1.57-5.44-5.45-8.52-11-8.01-4.42.41-8.76,1.59-13.16,2.28-2.42.38-4.89.44-8.43.74,2.75-2.6,4.68-4.42,6.61-6.23l-.51-.77c-.62.27-1.35.42-1.84.84-8.31,7.09-17.02,7.22-25.84,1.71,2.73-4.18,5.28-8.55,8.28-12.58,5.7-7.68,13.61-10.95,23.03-10.17,8.8.73,16.83,3.64,23.47,9.76,1.58,1.46,3.25,2.81,4.86,4.19.1-2.05.72-4.48,4.1-4.84,1.1,1.51,2.29,3.08,3.42,4.69,3.36,4.75,2.64,8.73-2.18,12.35-.25.18-.43.46-.73.8v6.26c.57-2.81.53-5.66,3.29-7.69,2.29-1.69,4.38-3.62,7.32-3.95,1.59-.18,3.27-.19,4.83.11,2.59.5,5.12,1.34,7.69,1.97,2.39.58,4.81,1.07,7.64,1.69-2.35,6.32-6.48,10.66-12.28,13.62-5.77,2.94-11.97,2.07-18.62,2.09,3.51,4.32,8.23,5.11,12.68,6.43-2.61,4.73-7.06,6.39-16.21,5.86,1.43.94,2.38,1.56,4.07,2.67-4.1,1.15-7.19,2.02-10.45,1.48-2.6-.43-5.16-1.12-7.74-1.66-.62-.13-1.3-.36-1.87-.21-7.65,1.95-15.36,1.9-23.83.32,3.82,6.28,6.33,12.36,7.22,18.9.89,6.52-.1,12.92-2.96,19.13,1.78,2.77,3.43,5.65,3.11,9.15-.05.5.16,1.16-.09,1.47-2.6,3.2-.95,7.12-1.86,10.62-.95,3.62-1.42,7.37-2.1,11.07-7.33-2.07-9.66-4.22-15.23-14.1-5.3,2.61-10.88,4.37-16.8,5.19-15.99,2.2-30.55-1.01-42.53-12.14-8.44-7.84-12.66-17.82-11.35-29.59,1.11-9.93,6.64-15.31,17.29-16.8,4.36-.61,8.53.34,12.5,2.44,2.88,1.52,6.02,2.54,9.17,3.84-4.57,10.64-12.98,12.81-23.3,11.58,2.85.55,5.7,1.1,8.97,1.72-.75.78-1.35,1.68-2.18,2.2-1.4.88-2.95,1.52-4.44,2.25-4.94,2.44-5.32,3.93-2.05,9.03.68-.37,1.41-.71,2.07-1.15,4.01-2.68,8.09-2.6,12.23-.34.87.48,1.76.94,2.57,1.52,5.66,4.06,11.85,4.81,18.47,3.03,1.38-.37,2.82-.56,4.38-.87-2.65,5.3-6.06,7.62-14.96,10.56,7.68.19,14.75-1.78,20.39-7.17,4.29-4.09,6.03-9.59,5.54-15.44-.36-4.24-1.04-8.44-2.38-12.61-2.78-8.69-8.58-14.49-16.16-18.78-12.08-6.83-25.16-11.15-38.54-14.54-10.78-2.73-21.69-4.74-32.84-5.21-5.27-.22-10.54-.69-16.26-1.08,0,8.31.36,16.04-.1,23.72-.46,7.76-1.34,15.55-2.77,23.19-1.43,7.64-3.45,15.21-5.81,22.62-2.36,7.42-5.36,14.65-8.28,21.88-2.92,7.2-6.09,14.28-9.31,21.78,2.33,3.7,6.53,4.18,10.61,4.59,4.7.47,9.29-.67,13.65-2.19,6.25-2.18,12.5-4.27,19.06-5.23,4.26-.62,8.53-1.13,12.82-1.51,4.13-.37,8.29-.88,12.41-.71,17.8.77,35.17,3.93,51.92,10.16,4.66,1.73,9.52,3.18,13.79,5.62,5.22,2.99,10.47,2.84,15.82,1.64,15.08-3.4,30.41-3.49,45.61-2.41,16.08,1.14,30.54,7.35,42.85,18.08,11.08,9.66,18.73,21.42,22.17,35.81,4.31,18.01,1.5,34.91-7.91,50.77-7.11,12-16.38,21.75-29.36,27.45-7.47,3.29-15.21,5.99-23.5,5.55-10.92-.58-20.46-4.76-27.14-13.57-5.12-6.75-6.92-14.65-4.2-23.07.65-2.02,1.57-3.99,3.63-5.2,2.31,11.77,11.98,18.57,21.96,20.54,4.57.9,8.48-.77,11.89-3.79,4.48-3.96,7.46-8.9,9.37-14.49,1.94-5.68,2.97-11.5,3.22-17.55.62-15.28-2.29-29.73-9.4-43.28-3.98-7.58-8.89-14.46-16.16-19.29-7.62-5.07-15.74-6.72-23.77-1.45-7.12,4.67-11.57,11.33-11.57,20.3,0,47.59.05,95.17-.07,142.76-.01,4.98,1.79,8.44,5.68,11.4,7.42,5.65,14.43,11.79,19.76,19.57,4.42,6.45,7.26,13.43,6.52,21.46-.35,3.85-1.35,7.46-4.51,10.27-2.81-11.09-9.95-17.46-20.55-20.11-2.36-.59-5-.81-7.38-.43-9.96,1.59-19.91,3.28-29.8,5.27-17.7,3.56-34.89,9.06-52.3,13.75-9.45,2.54-19.11,3.89-28.86,4.97-9.64,1.06-19.27,1.05-28.88.63-13.76-.6-27.33-2.86-40.65-6.53-25.14-6.92-48.05-18.29-68.61-34.31-20.98-16.35-37.98-36.16-50.8-59.49-8.92-16.24-15.65-33.35-19.55-51.49-1.5-6.96-2.61-13.99-3.97-21.39-.84-.46-2.03-1.01-3.12-1.71-3.61-2.35-7.31-4.58-10.74-7.17-5.28-3.98-10.37-8.23-15.68-12.47.09-.2.17-.78.5-1.03,4.98-3.85,9.93-7.76,15.03-11.45,4.42-3.2,9.02-6.14,14.26-9.68,5.89-45.98,25.18-86.4,59.64-119.14,34.32-32.6,75.46-49.87,122.8-53.52-1.55-7.62-4.29-14.49-7.8-21.01-11.8-21.88-29.4-37.01-53.06-44.91-7.45-2.49-15.2-3.85-23-3.59-16.88.56-32.01,5.94-43.71,18.6-12.04,13.02-15.23,28.12-8.54,44.73,4.01,9.95,13.72,18.23,26.75,18.35,8.18.07,15.46-1.87,21.33-7.81,5.81-5.89,7.87-12.87,5.87-20.98-.19-.78-.16-1.61-.27-2.89,2.73,5.35,2.74,12.47.34,18.12-2.85,6.69-7.93,10.96-14.58,13.48-17.57,6.66-36.13-1.69-42.69-19.35-5.88-15.84-3.18-30.42,7.32-43.48,10.9-13.57,25.5-20.24,42.53-22.21,16.06-1.86,30.92,2.04,45.15,9.13,1.33.66,2.65,1.34,4.63,2.35-.44-1.6-.66-2.61-.99-3.58-5.25-15.27-3.58-29.46,6.81-42.14,4.98-6.09,11.53-9.95,19.11-11.97,13.91-3.71,26.96-2.02,38.94,6.29,4.31,3,7.55,6.97,10.29,11.38,3.13,5.05,3.74,10.61,2.97,16.35-.89,6.57-6.69,12.09-13.34,12.94-4.81.62-10.26-2.61-11.98-7.09-1.67-4.36-.16-8.22,4.85-10.91ZM107.04,415.54c.33.73.57,1.34.88,1.93,9.53,18.29,22.58,33.61,39.16,45.84,24.29,17.92,51.63,26.9,81.77,26.95,8.93.02,17.83-1.19,26.69-2.68,14.78-2.5,29.08-6.51,42.88-12.39,13.62-5.81,20.12-16.01,19.93-30.8-.19-14.3-.21-28.62.02-42.92.14-8.7-5.69-19.42-16.12-22.9-1.89-.63-3.87-1.07-5.65-1.93-.9-.43-1.99-1.58-2-2.42,0-.83,1.07-2.01,1.97-2.44,1.78-.86,3.76-1.3,5.65-1.93,10.44-3.47,16.29-14.19,16.15-22.88-.22-14.3-.04-28.61-.09-42.92,0-1.63-.2-3.31-.62-4.89-2.84-10.86-9.14-19.07-19.13-24.28-10.35-5.4-21.29-7.37-32.78-4.8-15.74,3.52-27.53,12.24-33.79,27.36-1.74,4.2-3.15,9.02-2.9,13.46.41,7.48,2.9,14.6,8.38,20.25,2.97,3.06,6.42,4.9,10.69,5.84,5.99,1.31,11.59.37,17.03-1.78,4.06-1.6,7.59-4.13,9.27-8.53,1.79-4.69.57-7.81-4.16-10.51-1.04,1.86-1.85,3.9-3.17,5.53-3.17,3.93-8.19,4.34-11.94,1.23-3.75-3.11-4.95-9.08-2.74-13.68,1.99-4.14,7.62-7.21,12.01-6.25,5.65,1.23,10.55,3.82,14.38,8.33,6.62,7.8,6.68,18.32-.23,25.85-8.75,9.53-19.58,12.56-32.13,9.73-1.05-.24-2.11-.37-3.73-.65,0,2.26,0,4.06,0,5.85,0,11.81-.08,23.62.05,35.43.04,3.62.24,7.32,1.02,10.84,1.69,7.61,3.47,15.25,9.77,20.76,1.1.96,1.86,2.33,2.73,3.54,6.75,9.42,10.45,19.53,7.39,31.3-1.41,5.45-3.78,10.14-8.78,13.38-.48-3.7-.87-7.14-1.39-10.56-1.58-10.44-7.67-17.13-17.65-20-4.25-1.22-8.83-2.04-13.22-1.89-9.59.33-19.16,1.38-28.74,2.17-2.97.25-5.93.66-8.9.93-6.43.59-12.86,1.43-19.3,1.6-5.46.14-10.93-.51-16.4-.83-1.74-.1-4.17.42-4.18-2.21-.01-2.14,2.14-2.01,3.8-2.25,9-1.3,18.05-2.3,26.83-4.84,8.98-2.6,17.7-5.8,24.88-12.02,4.88-4.23,8.15-9.12,7.99-16.27-.38-17.96-.13-35.93-.13-53.9,0-1.81,0-3.62,0-5.24-1.67-1.48-3.05-2.67-4.4-3.9-3.58-3.27-6.69-6.89-9.01-11.19-3.55-6.6-4.96-13.57-4.61-21.07.44-9.39,2.96-17.93,8.84-25.37,1.41-1.78,2.72-3.63,4.14-5.54-5.1-4.45-9.31-9.22-11.13-15.57-12.27,20.23-24.46,40.35-36.68,60.51.68.33.96.59,1.26.6,9.71.45,18.17,4.17,25.23,10.6,13.8,12.57,16.01,30.01,2.82,44.59-8.81,9.74-21.76,11.32-32.35,3.14-10.81-8.35-15.16-19.99-13.46-33.52.69-5.49,2.51-10.85,3.93-16.78-1.92.64-3.79,1.11-5.55,1.86-14.54,6.21-23.92,17.47-30.53,31.41-5.8,12.22-6.93,25.19-5.92,38.45.18,2.39.6,4.81,2.15,6.84,1.64-2.71,2.94-5.47,4.78-7.79,8.59-10.86,19.37-16.78,33.71-14.86,14.5,1.94,23.46,16.47,22.04,28.16-.79,6.47-3.53,11.83-9.85,14.5-6.25,2.64-12.5-1.39-12.18-7.71.03-.64.64-1.26,1.18-2.26.47.95.88,1.38.85,1.77-.2,2.59.52,4.72,3.17,5.52,2.7.81,5.23.36,7.36-1.76,2.56-2.56,4.06-5.53,4.45-9.19,1.28-11.95-9.86-26.28-27.01-22.17-13.02,3.12-20.66,11.88-24.68,24.24ZM167.65,155.62c9.77,13.25,10.78,27.66,8.23,42.7-1.52,8.98-5.21,17.2-10.01,24.78-6.21,9.81-12.95,19.29-19.64,28.8-7.76,11.04-14.59,22.54-19.69,35.09-6.11,15.03-9.73,30.6-11.47,46.67-.13,1.15-.02,2.33-.02,4.2,9.48-9.66,20.1-15.4,32.32-17.29,6.2-9.93,12.18-19.5,18.14-29.08,11.23-18.05,22.25-36.2,31.23-55.53,9.57-20.6,16.7-41.81,19.1-64.54,1-9.47.81-18.89.48-28.35,0-.26-.4-.5-.86-1.06-16.47,1.49-32.25,6.04-47.81,13.62ZM162.87,159.13c-2.4-.3-4.12,1.27-5.79,2.43-4.62,3.21-8.92,6.89-13.58,10.03-9.52,6.42-17.02,14.85-23.82,23.88-12.64,16.78-20.8,35.81-26.64,55.87-1.6,5.52-2.81,11.16-4.16,16.58,13.29,10.84,21.15,24.47,24.72,40.99.57-.64.89-.84.94-1.09,4.02-20.5,12.28-39.18,24.02-56.39,7.11-10.42,14.49-20.68,21.2-31.36,7.47-11.88,11.94-24.82,10.84-39.16-.61-7.91-2.64-15.34-7.72-21.79ZM151.78,327.35c-5.12,8.97-7.53,18.72-5.66,29.01,1.37,7.51,5.09,14.05,11.96,18.18,5.36,3.22,10.99,3.61,16.54.66,9.52-5.07,14.91-17.76,10.48-28.66-4.59-11.3-18.99-20.42-33.33-19.19ZM93.44,382.09c.33.02.65.04.98.06.26-1.97.38-3.96.79-5.9,2.28-10.86,6.45-20.94,12.93-29.95,2.37-3.29,3.25-6.82,3.42-10.69.1-2.16.02-4.33.14-6.48.98-16.69-4.42-31.36-14.23-44.58-2.63-3.55-5.92-6.51-9.95-10.17-.66,5.41-1.04,9.82-1.77,14.17-.94,5.63.8,10.37,4.06,14.81,3.49,4.76,8.27,7.57,13.76,9.31,1.92.61,3.89.99,4.26,3.39-.93,1.98-2.66,2.37-4.44,2.94-5.65,1.81-10.62,4.76-13.99,9.8-2.81,4.2-4.64,8.63-3.68,13.96,1.27,7,1.96,14.11,3.3,21.1,1.18,6.13,2.91,12.16,4.4,18.24Z"/>
  </g>
</svg>