<?xml version="1.0" encoding="UTF-8"?>
<svg id="Layer_2" data-name="Layer 2" xmlns="http://www.w3.org/2000/svg" viewBox="0 0 542.6 552.97">
  <defs>
    <style>
      .cls-1 {
        stroke-width: 0px;
      }
    </style>
    <linearGradient id="g-fill" x1="0%" y1="0%" x2="0%" y2="100%">
        <stop offset="0%" stop-color="#936844" />
        <stop offset="100%" stop-color="#c7a17c" />
    </linearGradient>
    <filter id="dropshadow" x="-40%" y="-40%" width="180%" height="180%">
    <feOffset result="offOut" in="SourceGraphic" dx="10" dy="10" />
    <feColorMatrix result="matrixOut" in="offOut" type="matrix"
        values="0 0 0 0 0  0 0 0 0 0  0 0 0 0 0  0 0 0 0.7 0" />
    <feGaussianBlur result="blurOut" in="matrixOut" stdDeviation="10" />
    <feBlend in="SourceGraphic" in2="blurOut" mode="normal" />
    </filter>
  </defs>
  <g id="Layer_1-2" data-name="Layer 1">
    <path fill="url(#g-fill)" filter="url(#dropshadow)" class="cls-1" d="M0,497.46C0,350.15,0,202.84,0,55.53c.15-.6.35-1.2.43-1.81,1.71-14.4,7.89-26.73,18.12-36.81C30.17,5.47,44.43.03,60.77.03c76.1.01,152.19,0,228.29,0,64.9,0,129.8-.13,194.69.1,16.72.06,30.95,6.58,42.37,19.1,11.28,12.37,16.49,26.85,16.47,43.49-.06,66.28-.02,132.56-.03,198.84,0,76.99.04,153.98-.03,230.97-.02,17.18-6.6,31.86-18.76,43.78-11.59,11.36-25.85,16.65-42.11,16.64-140.16-.02-280.32,0-420.48-.03-19.18,0-35.12-7.07-47.3-22.14-5.22-6.45-9.28-13.5-11.34-21.57C1.55,505.35.84,501.39,0,497.46ZM467.18,476.2v-3.1c0-53.69-.03-107.37.02-161.06.01-12.05-.61-24.01-2.96-35.87-3.26-16.42-9.65-31.39-20.23-44.42-7.71-9.5-17.66-16.26-28.57-21.43-12.41-5.89-25.76-8.11-39.45-8.43-16.78-.39-32.74,2.4-47.66,10.76-13.83,7.75-25.17,17.9-33.76,31.18-.27.42-.6.8-1.24,1.65v-35.58h-77.42v266.25h77.49v-2.63c0-45.27.02-90.55-.02-135.82,0-7.67.46-15.3,2.22-22.77,2.19-9.3,5.78-18,12.53-24.99,8.6-8.9,19.49-12.45,31.57-12.98,8.53-.38,16.79.69,24.44,4.81,9.95,5.36,15.24,14.25,18.6,24.6,3.3,10.17,4.03,20.7,4.04,31.29.04,45.27.02,90.55.02,135.82,0,.88,0,1.76,0,2.73h80.39ZM163.94,476.19V209.94h-80.68v266.25h80.68ZM123.22,175.04c10.99-.1,19.77-2.74,29.31-10.48,13.75-11.15,19.67-25.8,18.2-43.22-1.57-18.61-11.27-32.36-27.92-40.27-15.2-7.22-30.62-6.26-44.93,3.3-17.08,11.4-24.17,27.65-22.01,47.8,1.86,17.33,11.45,29.75,26.45,38.04,6.42,3.55,13.54,4.93,20.9,4.84Z"/>
  </g>
</svg>