<?xml version="1.0" encoding="UTF-8"?>
<svg id="Layer_2" data-name="Layer 2" xmlns="http://www.w3.org/2000/svg" viewBox="0 0 926.14 180.33">
  <defs>
    <style>
      .cls-1 {
        stroke-width: 2px;
      }
    </style>
    <linearGradient id="g-fill" x1="0%" y1="0%" x2="0%" y2="100%">
      <stop offset="0%" stop-color="#5b5c60" />
      <stop offset="2.5%" stop-color="#5b5c60" />
      <stop offset="10%" stop-color="#49494b" />
      <stop offset="16.8%" stop-color="#626264" />
      <stop offset="24%" stop-color="#a2a2a4" />
      <stop offset="41.5%" stop-color="#a5a5a5" />
      <stop offset="43.5%" stop-color="#a1a1a1" />
      <stop offset="45.5%" stop-color="#8e8e8e" />
      <stop offset="51.5%" stop-color="#575757" />
      <stop offset="58%" stop-color="#1b1b1b" />
      <stop offset="63.5%" stop-color="#505153" />
      <stop offset="70%" stop-color="#4c4c4e" />
      <stop offset="76.5%" stop-color="#afb0b4" />
      <stop offset="87%" stop-color="#797a7c" />
      <stop offset="100%" stop-color="#797a7c" />
    </linearGradient>
    <linearGradient id="g-stroke" x1="0%" y1="0%" x2="0%" y2="100%">
      <stop offset="0%" stop-color="#afafb1" />
      <stop offset="100%" stop-color="#919192" />
    </linearGradient>
    <filter id="dropshadow" x="-40%" y="-40%" width="180%" height="180%">
      <feOffset result="offOut" in="SourceGraphic" dx="10" dy="10" />
      <feColorMatrix result="matrixOut" in="offOut" type="matrix"
        values="0 0 0 0 0  0 0 0 0 0  0 0 0 0 0  0 0 0 0.7 0" />
      <feGaussianBlur result="blurOut" in="matrixOut" stdDeviation="10" />
      <feBlend in="SourceGraphic" in2="blurOut" mode="normal" />
    </filter>
  </defs>
  <g id="Layer_1-2" data-name="Layer 1">
    <g>
      <path fill="url(#g-fill)" stroke="url(#g-stroke)" filter="url(#dropshadow)" class="cls-1" d="M0,83.49c2.69-.35,3.82-2.45,4.27-4.59.77-3.66,1.2-7.42,1.51-11.15,1.12-13.39,3.75-26.33,10.95-37.95C27.26,12.8,42.25,2.49,62.33.33c12.29-1.32,23.68,1.13,33.11,9.82,7.83,7.22,10.09,17.2,6.03,26.97-3.99,9.6-13.64,15.92-23.67,15.5-12.48-.53-21.36-14.26-16.65-25.76.23-.55.58-1.05,1.01-1.81.44.52.82.77.9,1.09.85,3.73,5.72,6.46,10,5.69,4.59-.83,7.77-4.34,8.09-8.91.44-6.23-3.78-11.23-10.16-12.23-6.19-.96-11.58,1.02-16.61,4.29-9.73,6.32-15.06,15.79-18.61,26.43-3.19,9.58-4.55,19.48-4.72,29.55-.03,1.67.1,3.39.44,5.02.68,3.24,1.65,6.38,5.4,8.07-5.34,2.08-4.89,6.02-4.15,10.16,1.85,10.42,4.93,20.4,10.71,29.37,4.41,6.84,9.92,12.56,18.18,14.47,3.03.7,6.43.8,9.48.24,5.67-1.03,8.56-6.84,6.49-12.01-.18-.44-.39-.88-.65-1.29-2-3.18-4.99-3.42-7.89-.57,0-1.19-.32-2.49.06-3.55,1.61-4.57,5.53-5.6,9.95-5.82v-39.04c-2.76,1.39-5.4,2.62-7.95,4.03-4.02,2.23-8.06,4.63-10.34,8.76-1.14,2.07-1.83,4.63-1.89,6.99-.08,3.45,2.55,4.64,5.7,2.79.07,2.03-1.08,2.89-2.76,3.23-3.18.64-6.5-1.06-7.17-4.53-.77-4.03-.65-8.24-.86-12.38-.05-.95.16-1.92.12-2.88-.17-4.04-1.44-5.54-5.61-6.52.95-4.49,3.67-7.48,7.75-9.33,4.77-2.16,9.91-2.47,15.03-2.94,7.58-.69,15.15-1.43,22.69-2.45,2.41-.33,4.73-1.48,7-2.48,3.47-1.52,6.74-3.38,9.12-6.85,0,.65.1,1.32-.02,1.94-.72,3.7-2.26,6.98-5.03,9.65-.57.55-1.15,1.45-1.14,2.18.07,3.68.13,7.38.59,11.03.4,3.15,1.59,6.07,5.24,7.63-5.85,3.47-5.82,9.06-5.84,14.47-.06,19.02.03,38.05.07,57.07,0,3.68.2,7.36,0,11.03-.37,6.73-3.19,11.83-10.12,13.86h-3.38c-5.9-2.55-7.67-5.17-7.22-10.62.24-2.85,2.02-5.16,4.3-5.47-.02.41-.02.81-.07,1.2-.26,2.03.39,3.65,2.19,4.7,1.8,1.05,3.59.74,5.24-.31,2.78-1.76,4.14-4.42,4.35-7.64.53-8.23-5.91-16.45-14.38-17.91-2.23-.38-4.81-.03-6.97.73-11.48,4.03-23.02,4.98-34.27-.11-18.53-8.37-29.33-23.34-34.69-42.52-1.05-3.77-1.55-7.69-2.53-11.48-.84-3.24-2.43-5.97-6.25-6.45v-.96Z"/>
      <path fill="url(#g-fill)" stroke="url(#g-stroke)" filter="url(#dropshadow)" class="cls-1" d="M451.72,30.01c.76-.04,1.52-.12,2.28-.12,15.29,0,30.58-.02,45.86,0,5.84.01,11.49,1.08,16.86,3.44,17.46,7.66,22.94,27.19,11.89,42.68-6.73,9.45-16.38,14.46-27.4,17.02-4.98,1.16-10.1,1.67-15.46,2.52-.02.19-.16.8-.16,1.4-.01,9.23-.01,18.47,0,27.7,0,3.46.6,6.86,3.02,9.39,1.63,1.71,3.93,2.78,5.97,4.16h-83.95c-.04-.11-.08-.23-.12-.34.52-.17,1.02-.37,1.55-.5,5.14-1.32,7.06-4.26,5.76-9.48-.77-3.09-1.85-6.13-3.09-9.07-3.95-9.37-8.03-18.68-12.08-28.04-2.57.19-5.03.37-7.63.57-.04.69-.12,1.31-.12,1.93,0,10.12-.07,20.23.05,30.35.03,2.37.42,4.81,1.13,7.07,1.07,3.4,3.47,5.71,7.01,6.7.37.1.73.26,1.08.41.04.01.03.14.07.4h-43.17c.04-.22.04-.47.09-.49,6.46-1.57,8.93-6.32,9.09-12.29.27-9.95.1-19.91.04-29.86,0-1.51-.3-3.03-.63-4.52-.64-2.87-1.73-5.5-5.03-6.9,4.99-2.92,5.53-7.63,5.63-12.26.21-9.47.14-18.95.05-28.42-.05-5.38-2.32-11.62-9.05-12.75-.08-.01-.12-.26-.26-.6.55-.09,1.05-.24,1.55-.23,16.73.04,33.48-.28,50.2.27,10.82.35,20.5,4.27,26.88,13.69,6.39,9.43,5.16,21.96-3.17,31.03-3.32,3.62-7.45,6.49-11.48,9.93,2.95,7,6.1,14.52,9.29,22.02,2.85,6.7,5.66,13.43,8.68,20.06,1.84,4.04,4.82,7.1,8.88,9.16,2.01,1.02,3.45.6,4.96-.79,3.15-2.9,4.08-6.72,4.1-10.69.05-10.35-.02-20.71-.33-31.05-.11-3.72-1.15-7.35-5.29-9.34,5.5-3.32,5.49-8.79,5.62-14,.21-8.51.08-17.02.03-25.53,0-1.6-.15-3.22-.47-4.78-1-4.94-2.88-6.88-8.78-9.85ZM485.6,84.4c5.61.69,10.45-.46,14.5-3.89,8.19-6.96,10.7-16.07,9.35-26.41-1.51-11.55-10.1-17.42-21.54-15.09-1.98.4-2.36,1.25-2.35,3.05.07,9.79.03,19.59.03,29.38v12.96ZM394.92,80.54c5.91.73,11.05-.48,15.54-4.05,7.54-5.99,11.01-17.32,8.02-26.47-1.97-6.02-5.96-10.1-12.37-11.07-2.79-.42-5.73.08-8.6.13-1.97.04-2.67.85-2.65,2.95.11,12.02.05,24.05.05,36.07,0,.78,0,1.56,0,2.44Z"/>
      <path fill="url(#g-fill)" stroke="url(#g-stroke)" filter="url(#dropshadow)" class="cls-1" d="M633.58,83.61c3.36-2.08,2.96-5.96,2.12-9.36-2.61-10.64-5.42-21.26-8.65-31.73-1.82-5.92-5.7-10.39-12.27-11.7-.18-.04-.31-.28-.78-.72h47.18c-.19.31-.28.63-.42.66-7.4,1.15-9.85,6.78-8.14,13.63,2.86,11.49,6.01,22.92,9.06,34.36,1.46,5.46,2.98,10.9,4.96,16.36,1.28-5.13,2.6-10.25,3.85-15.39,2.83-11.67,5.6-23.35,8.46-35.01,1.8-7.32-.88-12.89-7.92-13.99-.09-.01-.14-.25-.34-.62h34.54c.04.1.08.21.13.31-.42.18-.83.42-1.27.52-5.7,1.42-8.89,5.81-7.55,11.49,2.64,11.21,5.66,22.33,8.59,33.48,1.7,6.46,3.53,12.89,5.7,19.38,1.02-4.09,2.07-8.18,3.06-12.27,3.18-13.14,6.47-26.26,9.46-39.45,1.62-7.16-.92-10.86-8.01-12.78-.19-.05-.34-.25-.88-.69h33.82c-.05.25-.05.51-.11.52-7.6,1.8-11.6,7.17-13.51,14.21-2.62,9.65-4.96,19.39-7.22,29.13-.49,2.13-.41,4.5-.09,6.68.19,1.24,1.41,2.32,2.19,3.51-5.32,2.93-6.45,8.76-7.99,14.07-2.42,8.37-4.43,16.88-6.19,25.42-.86,4.18-1.51,8.81,2.91,11.81,1.55,1.05,3.4,1.65,5.52,2.65h-39.1c.23-.28.34-.56.49-.58,6.66-.97,8.56-6.29,7.89-12-.68-5.77-2.1-11.47-3.54-17.12-2.25-8.84-4.78-17.6-7.21-26.4-.14-.52-.36-1.01-.74-2.06-1.68,6.78-3.24,13.01-4.77,19.25-1.82,7.46-3.75,14.9-5.35,22.41-.53,2.46-.49,5.14-.2,7.66.56,4.89,3.47,7.77,8.39,8.83h-39.36c.77-.4,1.05-.6,1.36-.69,6.5-1.99,9.23-5.94,7.67-12.53-2.38-10.04-5.24-19.97-8-29.91-.51-1.83-1.31-3.68-2.4-5.22-1.51-2.14-3.43-4-5.32-6.16Z"/>
      <path fill="url(#g-fill)" stroke="url(#g-stroke)" filter="url(#dropshadow)" class="cls-1" d="M872.83,138.28h-43.41c.43-.4.58-.69.8-.74,5.29-1.18,7.81-4.84,8.49-9.85.43-3.16.48-6.4.46-9.6-.07-8.42-.13-16.85-.49-25.26-.15-3.48-1.3-6.81-5.15-8.67,5.59-3.58,5.49-9.21,5.62-14.59.19-8.18.08-16.38.02-24.57-.01-1.83-.18-3.7-.58-5.49-1.07-4.78-3.89-7.97-8.88-9.31.47-.11.94-.32,1.41-.32,16.81.03,33.63-.05,50.44.2,6.41.1,12.51,2.03,18.04,5.38,13.92,8.44,17.08,25.19,6.81,37.92-2.91,3.61-6.99,6.29-10.57,9.35-.65.56-1.47.93-2.33,1.46,3.41,8.08,6.77,16.04,10.13,24,2.24,5.31,4.5,10.62,6.73,15.94,2.93,6.99,7.47,12.12,15.38,13.43.1.02.16.24.39.59h-46.62c-.05-.12-.1-.24-.15-.36.74-.24,1.48-.49,2.22-.71,4.23-1.21,6.2-4.07,5.12-8.36-.97-3.86-2.3-7.66-3.82-11.34-3.47-8.36-7.2-16.6-10.71-24.95-.63-1.5-1.36-1.86-2.86-1.6-1.73.29-3.5.32-5.4.47-.08.33-.23.7-.23,1.07-.01,10.36-.13,20.72.03,31.07.13,8.54,1.76,10.86,9.11,14.81ZM863.67,80.87c2.67-.18,5.04-.05,7.26-.55,9.13-2.09,14.31-8.33,16.4-17.03.86-3.55.99-7.56.31-11.14-1.97-10.5-10.01-15.1-21.66-13.07-1.75.3-2.38.92-2.37,2.77.09,11.72.04,23.44.04,35.16,0,1.11,0,2.22,0,3.86Z"/>
      <path fill="url(#g-fill)" stroke="url(#g-stroke)" filter="url(#dropshadow)" class="cls-1" d="M265.05,84.21c5.51-3.02,6.33-7.96,7.31-12.85,2.67-13.38,8-25.38,18.68-34.39,14.26-12.02,33.28-11.22,46.71,1.81,9.4,9.12,14.46,20.43,16.63,33.17.17,1.03.33,2.06.63,3.06,1.09,3.62,2.24,7.22,6.34,8.97-5.86,3.38-6.33,9.19-7.41,14.61-2.45,12.3-7.65,23.14-17.05,31.6-15.57,14.02-36.34,12.63-50.33-3.04-8.24-9.23-12.44-20.23-14.65-32.17-.25-1.33-.58-2.66-1.03-3.94-.99-2.83-2.17-5.56-5.83-6.83ZM323.94,84.15c4.95-1.97,6.45-3.78,6.35-8.54-.23-9.86-2.08-19.42-6.62-28.27-1.15-2.24-2.79-4.35-4.61-6.1-3.63-3.5-7.99-3.48-11.57.05-1.85,1.83-3.52,4.01-4.69,6.32-4.29,8.42-6.02,17.52-6.43,26.88-.19,4.36.83,8.15,6.53,9.51-6.54,1.85-6.77,6.57-6.39,11.31.62,7.76,1.83,15.48,5.07,22.62,1.5,3.29,3.54,6.51,5.98,9.17,3.36,3.64,7.84,3.69,11.3.14,2.46-2.53,4.55-5.64,6.04-8.84,3.52-7.56,4.95-15.71,5.46-23.98.28-4.5-.48-8.75-6.39-10.28Z"/>
      <path fill="url(#g-fill)" stroke="url(#g-stroke)" filter="url(#dropshadow)" class="cls-1" d="M532.01,84.12c5.77-3.31,6.2-8.96,7.38-14.34,2.69-12.22,7.67-23.3,17.22-31.78,14.95-13.27,34.25-12.68,48.46,1.4,8.79,8.71,13.62,19.46,15.83,31.49.29,1.57.56,3.16,1,4.69.98,3.43,2.28,6.68,6.12,8.36-6.14,3.73-6.33,10.01-7.6,15.77-2.76,12.57-8.38,23.52-18.39,31.87-14.12,11.78-33.08,10.85-46.31-1.97-9.5-9.21-14.37-20.65-16.83-33.35-.2-1.02-.34-2.06-.63-3.06-1.07-3.61-2.12-7.27-6.26-9.09ZM569.32,83.9c-4.99,2.48-6.61,4.69-6.26,9.66.63,9.05,2.05,18,6.02,26.28,1.16,2.42,2.7,4.78,4.53,6.74,3.93,4.22,8.54,4.2,12.63.14,1.35-1.34,2.58-2.9,3.51-4.55,5-8.94,6.82-18.76,7.32-28.82.21-4.1-1.04-7.84-5.81-9.04-.06-.01-.06-.27-.08-.42,3.42-1.2,4.78-2.33,5.41-5.1.39-1.7.66-3.52.45-5.23-.58-4.68-1.21-9.38-2.23-13.98-1.36-6.12-3.36-12.05-7.57-16.93-4.47-5.19-9.81-5.25-14.36-.11-1.21,1.37-2.29,2.92-3.12,4.54-4.54,8.78-6.34,18.27-6.74,28.02-.17,4.04,1.09,7.65,6.3,8.81Z"/>
      <path fill="url(#g-fill)" stroke="url(#g-stroke)" filter="url(#dropshadow)" class="cls-1" d="M167.72,117.82c-2.65,4.72-6.09,6.7-10.9,5.46-1.87-.48-2.54-1.73-2.45-3.73,4.08.06,5.7-1.47,5.93-5.74.17-3.28-.52-6.39-2.37-9.15-1.95-2.91-5.05-3.97-7.94-2.83-2.05.81-3.39,3.13-3.01,5.22.4,2.2,1.87,3.25,4.49,3.2-1.38,5.85-9.49,6.73-15.32,1.4-1.14,4.81-2.5,9.41-3.29,14.11-.99,5.89,1.63,9.67,7.34,11.48.49.16.97.35,1.39.92h-33.48c-.18-.17-.35-.34-.53-.51.31-.05.63-.09.94-.16,6.23-1.27,10.21-5.39,11.97-11.06,3.43-10.99,6.39-22.13,9.19-33.3.79-3.14,1.08-6.79-2.81-9.16,5.09-1.66,6.98-5.87,8.17-10,3.01-10.44,5.5-21.03,8.05-31.6.38-1.57.09-3.36-.16-5-.45-3.06-2.3-5.03-5.24-5.97-.96-.3-1.94-.53-2.92-1.31.62-.07,1.25-.21,1.87-.21,9.82-.01,19.63.05,29.44-.06,1.79-.02,2.32.71,2.72,2.21,3.24,12.14,6.47,24.28,9.86,36.37.9,3.22,2.2,6.35,3.6,9.39,1.24,2.69,2.85,5.23,6.53,6.03-4.29,3.01-3.59,7.03-2.69,10.67,2.51,10.17,5.26,20.29,8.23,30.34,2.09,7.04,4.78,9.42,13.6,13.33h-47.08c3.35-1.35,6.62-2.66,8.01-6.3,1.76-4.6,0-8.96-1.17-14.04ZM141.66,91.56c6.87-2.81,13.01-2.52,19.24,1.39-3.28-11.99-6.42-23.47-9.55-34.96l-.57.06c-2.99,10.98-5.98,21.96-9.12,33.52Z"/>
      <path fill="url(#g-fill)" stroke="url(#g-stroke)" filter="url(#dropshadow)" class="cls-1" d="M794.58,99.08c-.56,4.26-3.47,5.12-10.17,3.13v25.14c.95.04,1.8.11,2.66.12,5.07.01,10.14-.14,15.2.04,6.16.23,11.11-2.25,14.62-6.95,2.89-3.87,4.96-8.35,7.36-12.59.4-.71.64-1.51.95-2.27.26.07.52.14.78.21-1.84,10.79-3.69,21.57-5.52,32.29h-70.06c.14-.34.19-.59.26-.6,6.32-.92,9.01-7.37,8.99-12.82-.03-9.39.03-18.78-.04-28.18-.01-1.91-.24-3.85-.64-5.72-.59-2.81-1.71-5.37-4.96-6.66,5.59-3.56,5.59-9.05,5.62-14.5.04-8.43.05-16.86-.02-25.29-.01-1.91-.19-3.86-.64-5.71-1.02-4.21-3.08-6.1-8.47-8.55h69.75c1.39,10.88,2.79,21.85,4.19,32.82-.25.07-.51.14-.76.22-.3-.74-.59-1.49-.89-2.23-1.45-3.55-2.63-7.23-4.41-10.61-3.62-6.89-9.8-9.59-17.34-9.65-4.91-.03-9.82,0-14.72-.01-1.09,0-2.08-.09-2.08,1.53.04,10.9.02,21.8.02,33.31,1.02-.87,1.63-1.41,2.26-1.93,7.1-5.94,17.62-5.84,23.99.25,5.66,5.41,5.18,14.49-1.02,19.22-4.58,3.48-10.87,1.88-12.41-3.16,3.38-.16,4.78-1.5,4.52-4.32-.25-2.75-3.03-5.1-5.84-4.34-1.79.48-3.76,1.66-4.85,3.12-2.45,3.28-3.08,7.17-2.03,11.2.87,3.34,2.27,4.2,5.68,3.48Z"/>
      <path fill="url(#g-fill)" stroke="url(#g-stroke)" filter="url(#dropshadow)" class="cls-1" d="M213.61,84.08c5.43-2.96,5.74-7.97,5.86-12.72.26-9.87.08-19.74.06-29.61,0-.22-.12-.45-.18-.66-10.03-.74-16.89,2.98-20.17,10.26-1.41,3.13-2.48,6.41-3.7,9.62-.28.75-.57,1.5-.85,2.25-.26-.07-.51-.14-.77-.2,1.39-10.91,2.77-21.81,4.21-33.14h3.02c20.35,0,40.7.03,61.05-.04,2.22,0,3.32.19,3.6,2.93.97,9.4,2.37,18.75,3.58,28.12.09.7.01,1.42-.45,2.32-.29-.64-.61-1.26-.85-1.91-1.14-3.07-2.12-6.21-3.4-9.22-2.84-6.66-8.1-10.13-15.2-10.96-1.75-.2-3.51-.22-5.46-.33-.05.76-.13,1.46-.13,2.16,0,8.99-.04,17.98.02,26.97.01,2.07.19,4.18.6,6.21.64,3.18,1.62,6.25,5.4,7.8-5.73,3.16-5.81,8.49-5.95,13.54-.25,8.82-.14,17.66-.02,26.48.03,2.21.47,4.48,1.15,6.59,1.29,4.01,4.26,6.39,8.32,7.64h-43.24c.04-.26.03-.38.06-.39,7.54-2.04,9.39-7.78,9.37-14.59-.02-9.79-.06-19.57-.34-29.36-.11-3.92-1.24-7.63-5.59-9.77Z"/>
    </g>
  </g>
</svg>